# xmcd
#
# Track frame offsets:
#	150
#	15134
#	22588
#	44587
#
# Disc length: 1006 seconds
#
# Revision: 1
# Processed by: cddbd v1.5.2PL0 Copyright (c) Steve Scherf et al.
# Submitted via: audiograbber 1.83.01
#
DISCID=1b03ec04
DTITLE=Plans and Apologies - Spiderz In The Bar (Part II)
DYEAR=2006
DGENRE=Indie
TTITLE0=Spiderz In The Bar (Part II)
TTITLE1=Planes, Trains and Automobiles
TTITLE2=Sympathy For A Ghost
TTITLE3=Data Track
EXTD=
EXTT0=
EXTT1=
EXTT2=
EXTT3=
PLAYORDER=
